<?xml version="1.0" encoding="UTF-8"?>
<svg xmlns="http://www.w3.org/2000/svg" xmlns:xlink="http://www.w3.org/1999/xlink" width="450pt" height="112.499997pt" viewBox="0 0 450 112.499997" version="1.2">
<defs>
<clipPath id="clip1">
  <path d="M 24 94 L 79 94 L 79 100.800781 L 24 100.800781 Z M 24 94 "/>
</clipPath>
<clipPath id="clip2">
  <path d="M 12.195312 31 L 42 31 L 42 100.800781 L 12.195312 100.800781 Z M 12.195312 31 "/>
</clipPath>
<clipPath id="clip3">
  <path d="M 12.195312 93 L 24 93 L 24 99 L 12.195312 99 Z M 12.195312 93 "/>
</clipPath>
<clipPath id="clip4">
  <path d="M 52 11.199219 L 68 11.199219 L 68 75 L 52 75 Z M 52 11.199219 "/>
</clipPath>
<clipPath id="clip5">
  <path d="M 64 37 L 94 37 L 94 100.800781 L 64 100.800781 Z M 64 37 "/>
</clipPath>
<clipPath id="clip6">
  <path d="M 41 11.199219 L 54 11.199219 L 54 75 L 41 75 Z M 41 11.199219 "/>
</clipPath>
<clipPath id="clip7">
  <path d="M 74 38 L 104.039062 38 L 104.039062 100.800781 L 74 100.800781 Z M 74 38 "/>
</clipPath>
<clipPath id="clip8">
  <path d="M 180.199219 11.199219 L 269.800781 11.199219 L 269.800781 100.800781 L 180.199219 100.800781 Z M 180.199219 11.199219 "/>
</clipPath>
<clipPath id="clip9">
  <path d="M 340 11.199219 L 438 11.199219 L 438 77 L 340 77 Z M 340 11.199219 "/>
</clipPath>
<clipPath id="clip10">
  <path d="M 368 84 L 410 84 L 410 100.800781 L 368 100.800781 Z M 368 84 "/>
</clipPath>
</defs>
<g id="surface1">
<path style=" stroke:none;fill-rule:nonzero;fill:rgb(93.728638%,21.958923%,16.859436%);fill-opacity:1;" d="M 76.621094 92.878906 L 30.425781 92.878906 C 28.484375 92.878906 26.902344 91.3125 26.902344 89.382812 C 26.902344 87.457031 28.484375 85.890625 30.425781 85.890625 L 76.621094 85.890625 C 77.152344 85.890625 77.582031 85.460938 77.582031 84.9375 C 77.582031 84.410156 77.152344 83.984375 76.621094 83.984375 L 30.425781 83.984375 C 27.425781 83.984375 24.984375 86.402344 24.984375 89.382812 C 24.984375 92.367188 27.425781 94.785156 30.425781 94.785156 L 76.621094 94.785156 C 77.152344 94.785156 77.582031 94.359375 77.582031 93.832031 C 77.582031 93.308594 77.152344 92.878906 76.621094 92.878906 "/>
<path style=" stroke:none;fill-rule:nonzero;fill:rgb(80.778503%,81.568909%,77.648926%);fill-opacity:1;" d="M 30.425781 85.890625 C 30.234375 85.890625 30.050781 85.902344 29.867188 85.933594 C 29.785156 85.988281 25.601562 89.011719 29.863281 92.835938 C 30.046875 92.867188 30.230469 92.878906 30.425781 92.878906 L 76.085938 92.878906 L 76.085938 85.890625 L 30.425781 85.890625 "/>
<path style=" stroke:none;fill-rule:nonzero;fill:rgb(60.389709%,60.389709%,57.649231%);fill-opacity:1;" d="M 30.019531 85.914062 L 30.019531 85.90625 C 29.980469 85.914062 29.9375 85.917969 29.894531 85.925781 C 29.9375 85.917969 29.980469 85.917969 30.019531 85.914062 "/>
<path style=" stroke:none;fill-rule:nonzero;fill:rgb(60.389709%,60.389709%,57.649231%);fill-opacity:1;" d="M 29.882812 92.835938 C 29.925781 92.84375 29.976562 92.847656 30.019531 92.855469 C 29.976562 92.847656 29.925781 92.84375 29.882812 92.835938 "/>
<path style=" stroke:none;fill-rule:nonzero;fill:rgb(60.389709%,60.389709%,57.649231%);fill-opacity:1;" d="M 29.863281 85.933594 C 28.191406 86.199219 26.902344 87.640625 26.902344 89.382812 C 26.902344 91.121094 28.1875 92.5625 29.863281 92.835938 C 25.605469 89.015625 29.761719 86.003906 29.863281 85.933594 "/>
<path style=" stroke:none;fill-rule:nonzero;fill:rgb(60.389709%,60.389709%,57.649231%);fill-opacity:1;" d="M 28.335938 90.921875 L 76.085938 90.921875 L 76.085938 90.800781 L 28.28125 90.800781 C 28.300781 90.84375 28.316406 90.878906 28.335938 90.921875 "/>
<path style=" stroke:none;fill-rule:nonzero;fill:rgb(60.389709%,60.389709%,57.649231%);fill-opacity:1;" d="M 28.597656 91.386719 L 76.085938 91.386719 L 76.085938 91.265625 L 28.523438 91.265625 C 28.550781 91.300781 28.574219 91.34375 28.597656 91.386719 "/>
<path style=" stroke:none;fill-rule:nonzero;fill:rgb(60.389709%,60.389709%,57.649231%);fill-opacity:1;" d="M 28.144531 90.464844 L 76.085938 90.464844 L 76.085938 90.335938 L 28.105469 90.335938 C 28.117188 90.378906 28.132812 90.421875 28.144531 90.464844 "/>
<path style=" stroke:none;fill-rule:nonzero;fill:rgb(60.389709%,60.389709%,57.649231%);fill-opacity:1;" d="M 28.929688 91.851562 L 76.085938 91.851562 L 76.085938 91.722656 L 28.832031 91.722656 C 28.863281 91.765625 28.898438 91.808594 28.929688 91.851562 "/>
<path style=" stroke:none;fill-rule:nonzero;fill:rgb(60.389709%,60.389709%,57.649231%);fill-opacity:1;" d="M 29.800781 92.773438 L 76.085938 92.773438 L 76.085938 92.652344 L 29.660156 92.652344 C 29.707031 92.695312 29.753906 92.738281 29.800781 92.773438 "/>
<path style=" stroke:none;fill-rule:nonzero;fill:rgb(60.389709%,60.389709%,57.649231%);fill-opacity:1;" d="M 28.019531 90 L 76.085938 90 L 76.085938 89.871094 L 27.996094 89.871094 C 28 89.914062 28.011719 89.957031 28.019531 90 "/>
<path style=" stroke:none;fill-rule:nonzero;fill:rgb(60.389709%,60.389709%,57.649231%);fill-opacity:1;" d="M 29.328125 92.316406 L 76.085938 92.316406 L 76.085938 92.1875 L 29.210938 92.1875 C 29.25 92.230469 29.289062 92.273438 29.328125 92.316406 "/>
<path style=" stroke:none;fill-rule:nonzero;fill:rgb(60.389709%,60.389709%,57.649231%);fill-opacity:1;" d="M 28.027344 88.613281 L 76.085938 88.613281 L 76.085938 88.484375 L 28.058594 88.484375 C 28.050781 88.527344 28.039062 88.570312 28.027344 88.613281 "/>
<path style=" stroke:none;fill-rule:nonzero;fill:rgb(60.389709%,60.389709%,57.649231%);fill-opacity:1;" d="M 28.996094 86.757812 L 76.085938 86.757812 L 76.085938 86.632812 L 29.105469 86.632812 C 29.066406 86.675781 29.03125 86.714844 28.996094 86.757812 "/>
<path style=" stroke:none;fill-rule:nonzero;fill:rgb(60.389709%,60.389709%,57.649231%);fill-opacity:1;" d="M 29.433594 86.296875 L 76.085938 86.296875 L 76.085938 86.167969 L 29.570312 86.167969 C 29.527344 86.207031 29.484375 86.25 29.433594 86.296875 "/>
<path style=" stroke:none;fill-rule:nonzero;fill:rgb(60.389709%,60.389709%,57.649231%);fill-opacity:1;" d="M 28.640625 87.21875 L 76.085938 87.21875 L 76.085938 87.097656 L 28.730469 87.097656 C 28.703125 87.136719 28.671875 87.179688 28.640625 87.21875 "/>
<path style=" stroke:none;fill-rule:nonzero;fill:rgb(60.389709%,60.389709%,57.649231%);fill-opacity:1;" d="M 27.957031 89.539062 L 76.085938 89.539062 L 76.085938 89.40625 L 27.949219 89.40625 C 27.949219 89.449219 27.953125 89.492188 27.957031 89.539062 "/>
<path style=" stroke:none;fill-rule:nonzero;fill:rgb(60.389709%,60.389709%,57.649231%);fill-opacity:1;" d="M 27.960938 89.074219 L 76.085938 89.074219 L 76.085938 88.949219 L 27.972656 88.949219 C 27.96875 88.992188 27.964844 89.027344 27.960938 89.074219 "/>
<path style=" stroke:none;fill-rule:nonzero;fill:rgb(60.389709%,60.389709%,57.649231%);fill-opacity:1;" d="M 28.367188 87.6875 L 76.085938 87.6875 L 76.085938 87.554688 L 28.4375 87.554688 C 28.414062 87.597656 28.390625 87.640625 28.367188 87.6875 "/>
<path style=" stroke:none;fill-rule:nonzero;fill:rgb(60.389709%,60.389709%,57.649231%);fill-opacity:1;" d="M 28.167969 88.148438 L 76.085938 88.148438 L 76.085938 88.019531 L 28.214844 88.019531 C 28.195312 88.0625 28.183594 88.105469 28.167969 88.148438 "/>
<path style=" stroke:none;fill-rule:nonzero;fill:rgb(60.389709%,60.389709%,57.649231%);fill-opacity:1;" d="M 32.257812 82.433594 L 30.84375 82.433594 L 30.84375 75.933594 L 32.257812 75.933594 L 32.257812 82.433594 "/>
<path style=" stroke:none;fill-rule:nonzero;fill:rgb(80.778503%,81.568909%,77.648926%);fill-opacity:1;" d="M 32.605469 76.296875 C 32.4375 76.296875 32.277344 76.3125 32.121094 76.335938 L 32.097656 76.355469 L 32.097656 82.269531 L 32.121094 82.292969 C 32.277344 82.316406 32.4375 82.328125 32.605469 82.328125 L 71.992188 82.328125 L 71.992188 76.296875 L 32.605469 76.296875 "/>
<path style=" stroke:none;fill-rule:nonzero;fill:rgb(60.389709%,60.389709%,57.649231%);fill-opacity:1;" d="M 32.097656 80.535156 L 32.097656 80.644531 L 71.992188 80.644531 L 71.992188 80.535156 L 32.097656 80.535156 "/>
<path style=" stroke:none;fill-rule:nonzero;fill:rgb(60.389709%,60.389709%,57.649231%);fill-opacity:1;" d="M 32.097656 80.929688 L 32.097656 81.039062 L 71.992188 81.039062 L 71.992188 80.929688 L 32.097656 80.929688 "/>
<path style=" stroke:none;fill-rule:nonzero;fill:rgb(60.389709%,60.389709%,57.649231%);fill-opacity:1;" d="M 32.097656 80.136719 L 32.097656 80.242188 L 71.992188 80.242188 L 71.992188 80.136719 L 32.097656 80.136719 "/>
<path style=" stroke:none;fill-rule:nonzero;fill:rgb(60.389709%,60.389709%,57.649231%);fill-opacity:1;" d="M 32.097656 81.332031 L 32.097656 81.445312 L 71.992188 81.445312 L 71.992188 81.332031 L 32.097656 81.332031 "/>
<path style=" stroke:none;fill-rule:nonzero;fill:rgb(60.389709%,60.389709%,57.649231%);fill-opacity:1;" d="M 32.097656 82.132812 L 32.097656 82.242188 L 71.992188 82.242188 L 71.992188 82.132812 L 32.097656 82.132812 "/>
<path style=" stroke:none;fill-rule:nonzero;fill:rgb(60.389709%,60.389709%,57.649231%);fill-opacity:1;" d="M 32.097656 79.734375 L 32.097656 79.847656 L 71.992188 79.847656 L 71.992188 79.734375 L 32.097656 79.734375 "/>
<path style=" stroke:none;fill-rule:nonzero;fill:rgb(60.389709%,60.389709%,57.649231%);fill-opacity:1;" d="M 32.097656 81.730469 L 32.097656 81.839844 L 71.992188 81.839844 L 71.992188 81.730469 L 32.097656 81.730469 "/>
<path style=" stroke:none;fill-rule:nonzero;fill:rgb(60.389709%,60.389709%,57.649231%);fill-opacity:1;" d="M 32.097656 78.542969 L 32.097656 78.644531 L 71.992188 78.644531 L 71.992188 78.542969 L 32.097656 78.542969 "/>
<path style=" stroke:none;fill-rule:nonzero;fill:rgb(60.389709%,60.389709%,57.649231%);fill-opacity:1;" d="M 32.097656 76.941406 L 32.097656 77.046875 L 71.992188 77.046875 L 71.992188 76.941406 L 32.097656 76.941406 "/>
<path style=" stroke:none;fill-rule:nonzero;fill:rgb(60.389709%,60.389709%,57.649231%);fill-opacity:1;" d="M 32.097656 76.539062 L 32.097656 76.652344 L 71.992188 76.652344 L 71.992188 76.539062 L 32.097656 76.539062 "/>
<path style=" stroke:none;fill-rule:nonzero;fill:rgb(60.389709%,60.389709%,57.649231%);fill-opacity:1;" d="M 32.097656 77.339844 L 32.097656 77.449219 L 71.992188 77.449219 L 71.992188 77.339844 L 32.097656 77.339844 "/>
<path style=" stroke:none;fill-rule:nonzero;fill:rgb(60.389709%,60.389709%,57.649231%);fill-opacity:1;" d="M 32.097656 79.339844 L 32.097656 79.445312 L 71.992188 79.445312 L 71.992188 79.339844 L 32.097656 79.339844 "/>
<path style=" stroke:none;fill-rule:nonzero;fill:rgb(60.389709%,60.389709%,57.649231%);fill-opacity:1;" d="M 32.097656 78.9375 L 32.097656 79.046875 L 71.992188 79.046875 L 71.992188 78.9375 L 32.097656 78.9375 "/>
<path style=" stroke:none;fill-rule:nonzero;fill:rgb(60.389709%,60.389709%,57.649231%);fill-opacity:1;" d="M 32.097656 77.742188 L 32.097656 77.847656 L 71.992188 77.847656 L 71.992188 77.742188 L 32.097656 77.742188 "/>
<path style=" stroke:none;fill-rule:nonzero;fill:rgb(60.389709%,60.389709%,57.649231%);fill-opacity:1;" d="M 32.097656 78.136719 L 32.097656 78.25 L 71.992188 78.25 L 71.992188 78.136719 L 32.097656 78.136719 "/>
<path style=" stroke:none;fill-rule:nonzero;fill:rgb(26.269531%,74.508667%,57.249451%);fill-opacity:1;" d="M 72.453125 82.328125 L 32.605469 82.328125 C 31.597656 82.328125 31.425781 80.980469 31.425781 79.316406 C 31.425781 77.648438 31.628906 76.296875 32.605469 76.296875 L 72.453125 76.296875 C 72.90625 76.296875 72.90625 74.652344 72.453125 74.652344 L 32.605469 74.652344 C 30.015625 74.652344 29.773438 76.742188 29.773438 79.316406 C 29.773438 81.882812 30.015625 83.976562 32.605469 83.976562 L 72.453125 83.976562 C 72.90625 83.976562 72.90625 82.328125 72.453125 82.328125 "/>
<path style=" stroke:none;fill-rule:nonzero;fill:rgb(60.389709%,60.389709%,57.649231%);fill-opacity:1;" d="M 32.257812 76.316406 C 32.21875 76.324219 32.183594 76.328125 32.144531 76.328125 C 32.183594 76.328125 32.21875 76.324219 32.257812 76.316406 "/>
<path style=" stroke:none;fill-rule:nonzero;fill:rgb(60.389709%,60.389709%,57.649231%);fill-opacity:1;" d="M 32.136719 82.292969 C 32.175781 82.296875 32.214844 82.304688 32.257812 82.3125 L 32.257812 82.304688 C 32.214844 82.304688 32.175781 82.296875 32.136719 82.292969 "/>
<path style=" stroke:none;fill-rule:nonzero;fill:rgb(81.568909%,20.779419%,25.099182%);fill-opacity:1;" d="M 33.246094 77.339844 L 35.472656 77.339844 C 35.472656 77.339844 36.277344 77.449219 35.902344 79.339844 C 35.648438 80.597656 36.226562 81.535156 36.90625 82.949219 L 35.21875 81.753906 L 34.824219 83.128906 C 34.824219 83.128906 33.320312 81.308594 33.648438 79.734375 C 33.945312 78.308594 33.597656 77.660156 33.246094 77.339844 "/>
<path style=" stroke:none;fill-rule:nonzero;fill:rgb(60.389709%,60.389709%,57.649231%);fill-opacity:1;" d="M 25.949219 99.585938 L 24.539062 99.679688 L 24.539062 96.1875 L 25.949219 95.472656 L 25.949219 99.585938 "/>
<path style=" stroke:none;fill-rule:nonzero;fill:rgb(80.778503%,81.568909%,77.648926%);fill-opacity:1;" d="M 26.296875 95.835938 C 26.136719 95.835938 25.972656 95.84375 25.820312 95.871094 L 25.789062 95.894531 L 25.789062 99.417969 L 25.8125 99.441406 C 25.972656 99.46875 26.136719 99.480469 26.296875 99.480469 L 77.695312 99.480469 L 77.695312 95.835938 L 26.296875 95.835938 "/>
<path style=" stroke:none;fill-rule:nonzero;fill:rgb(60.389709%,60.389709%,57.649231%);fill-opacity:1;" d="M 25.789062 97.6875 L 25.789062 97.796875 L 77.695312 97.796875 L 77.695312 97.6875 L 25.789062 97.6875 "/>
<path style=" stroke:none;fill-rule:nonzero;fill:rgb(60.389709%,60.389709%,57.649231%);fill-opacity:1;" d="M 25.789062 98.085938 L 25.789062 98.191406 L 77.695312 98.191406 L 77.695312 98.085938 L 25.789062 98.085938 "/>
<path style=" stroke:none;fill-rule:nonzero;fill:rgb(60.389709%,60.389709%,57.649231%);fill-opacity:1;" d="M 25.789062 97.289062 L 25.789062 97.394531 L 77.695312 97.394531 L 77.695312 97.289062 L 25.789062 97.289062 "/>
<path style=" stroke:none;fill-rule:nonzero;fill:rgb(60.389709%,60.389709%,57.649231%);fill-opacity:1;" d="M 25.789062 98.484375 L 25.789062 98.59375 L 77.695312 98.59375 L 77.695312 98.484375 L 25.789062 98.484375 "/>
<path style=" stroke:none;fill-rule:nonzero;fill:rgb(60.389709%,60.389709%,57.649231%);fill-opacity:1;" d="M 25.789062 99.28125 L 25.789062 99.394531 L 77.695312 99.394531 L 77.695312 99.28125 L 25.789062 99.28125 "/>
<path style=" stroke:none;fill-rule:nonzero;fill:rgb(60.389709%,60.389709%,57.649231%);fill-opacity:1;" d="M 25.789062 96.886719 L 25.789062 96.996094 L 77.695312 96.996094 L 77.695312 96.886719 L 25.789062 96.886719 "/>
<path style=" stroke:none;fill-rule:nonzero;fill:rgb(60.389709%,60.389709%,57.649231%);fill-opacity:1;" d="M 25.789062 98.886719 L 25.789062 98.992188 L 77.695312 98.992188 L 77.695312 98.886719 L 25.789062 98.886719 "/>
<path style=" stroke:none;fill-rule:nonzero;fill:rgb(60.389709%,60.389709%,57.649231%);fill-opacity:1;" d="M 25.789062 96.488281 L 25.789062 96.59375 L 77.695312 96.59375 L 77.695312 96.488281 L 25.789062 96.488281 "/>
<path style=" stroke:none;fill-rule:nonzero;fill:rgb(60.389709%,60.389709%,57.649231%);fill-opacity:1;" d="M 25.789062 96.085938 L 25.789062 96.199219 L 77.695312 96.199219 L 77.695312 96.085938 L 25.789062 96.085938 "/>
<g clip-path="url(#clip1)" clip-rule="nonzero">
<path style=" stroke:none;fill-rule:nonzero;fill:rgb(89.408875%,62.348938%,18.818665%);fill-opacity:1;" d="M 78.15625 99.480469 L 26.296875 99.480469 C 25.289062 99.480469 25.128906 99.320312 25.128906 97.660156 C 25.128906 95.996094 25.324219 95.835938 26.296875 95.835938 L 78.15625 95.835938 C 78.613281 95.835938 78.613281 94.785156 78.15625 94.785156 L 26.296875 94.785156 C 24.730469 94.785156 24.070312 95.089844 24.070312 97.660156 C 24.070312 100.230469 24.882812 100.53125 26.296875 100.53125 L 78.15625 100.53125 C 78.613281 100.53125 78.613281 99.480469 78.15625 99.480469 "/>
</g>
<path style=" stroke:none;fill-rule:nonzero;fill:rgb(60.389709%,60.389709%,57.649231%);fill-opacity:1;" d="M 25.949219 95.859375 C 25.914062 95.859375 25.878906 95.863281 25.84375 95.871094 C 25.878906 95.863281 25.914062 95.863281 25.949219 95.859375 "/>
<path style=" stroke:none;fill-rule:nonzero;fill:rgb(60.389709%,60.389709%,57.649231%);fill-opacity:1;" d="M 25.832031 99.441406 C 25.871094 99.449219 25.910156 99.457031 25.949219 99.460938 C 25.910156 99.457031 25.871094 99.449219 25.832031 99.441406 "/>
<path style=" stroke:none;fill-rule:nonzero;fill:rgb(81.568909%,20.779419%,25.099182%);fill-opacity:1;" d="M 46.34375 96.085938 L 48.570312 96.085938 C 48.570312 96.085938 49.015625 96.167969 48.992188 97.429688 C 48.960938 98.71875 48.980469 98.382812 49.523438 99.546875 L 47.835938 98.351562 L 47.441406 99.726562 C 47.441406 99.726562 46.6875 99.265625 46.773438 97.660156 C 46.839844 96.378906 46.507812 96.230469 46.34375 96.085938 "/>
<g clip-path="url(#clip2)" clip-rule="nonzero">
<path style=" stroke:none;fill-rule:nonzero;fill:rgb(25.099182%,68.629456%,72.158813%);fill-opacity:1;" d="M 22.347656 98.84375 C 21.972656 100.09375 20.652344 100.804688 19.394531 100.433594 L 14.175781 98.898438 C 12.921875 98.527344 12.203125 97.214844 12.578125 95.964844 L 31.464844 32.691406 C 31.835938 31.441406 33.15625 30.726562 34.414062 31.101562 L 39.632812 32.632812 C 40.890625 33.007812 41.605469 34.320312 41.234375 35.570312 L 22.347656 98.84375 "/>
</g>
<path style=" stroke:none;fill-rule:nonzero;fill:rgb(100%,100%,100%);fill-opacity:1;" d="M 40.328125 38.609375 L 30.554688 35.730469 L 31.035156 34.132812 L 40.804688 37.007812 L 40.328125 38.609375 "/>
<path style=" stroke:none;fill-rule:nonzero;fill:rgb(100%,100%,100%);fill-opacity:1;" d="M 39.707031 40.675781 L 29.9375 37.796875 L 30.414062 36.203125 L 40.183594 39.074219 L 39.707031 40.675781 "/>
<path style=" stroke:none;fill-rule:nonzero;fill:rgb(100%,100%,100%);fill-opacity:1;" d="M 23.15625 96.136719 L 13.386719 93.257812 L 13.863281 91.65625 L 23.632812 94.535156 L 23.15625 96.136719 "/>
<g clip-path="url(#clip3)" clip-rule="nonzero">
<path style=" stroke:none;fill-rule:nonzero;fill:rgb(100%,100%,100%);fill-opacity:1;" d="M 22.539062 98.203125 L 12.765625 95.328125 L 13.25 93.722656 L 23.011719 96.601562 L 22.539062 98.203125 "/>
</g>
<g clip-path="url(#clip4)" clip-rule="nonzero">
<path style=" stroke:none;fill-rule:nonzero;fill:rgb(28.239441%,7.449341%,8.628845%);fill-opacity:1;" d="M 67.125 74.1875 L 57.457031 74.941406 L 52.519531 12.671875 L 62.1875 11.917969 L 67.125 74.1875 "/>
</g>
<path style=" stroke:none;fill-rule:nonzero;fill:rgb(100%,100%,100%);fill-opacity:1;" d="M 62.339844 13.792969 L 52.667969 14.550781 L 52.613281 13.835938 L 62.28125 13.082031 L 62.339844 13.792969 "/>
<path style=" stroke:none;fill-rule:nonzero;fill:rgb(100%,100%,100%);fill-opacity:1;" d="M 62.640625 17.632812 L 52.972656 18.386719 L 52.753906 15.613281 L 62.421875 14.859375 L 62.640625 17.632812 "/>
<path style=" stroke:none;fill-rule:nonzero;fill:rgb(100%,100%,100%);fill-opacity:1;" d="M 57.261719 72.515625 L 66.929688 71.761719 L 66.988281 72.472656 L 57.320312 73.226562 L 57.261719 72.515625 "/>
<path style=" stroke:none;fill-rule:nonzero;fill:rgb(100%,100%,100%);fill-opacity:1;" d="M 56.957031 68.679688 L 66.625 67.921875 L 66.847656 70.695312 L 57.175781 71.453125 L 56.957031 68.679688 "/>
<path style=" stroke:none;fill-rule:nonzero;fill:rgb(100%,100%,100%);fill-opacity:1;" d="M 64.113281 61.710938 L 58.664062 61.382812 L 58.347656 57.339844 L 63.796875 57.667969 L 64.113281 61.710938 "/>
<g clip-path="url(#clip5)" clip-rule="nonzero">
<path style=" stroke:none;fill-rule:nonzero;fill:rgb(94.898987%,54.508972%,18.818665%);fill-opacity:1;" d="M 93.84375 97.417969 L 84.664062 100.53125 L 64.039062 40.480469 L 73.21875 37.371094 L 93.84375 97.417969 "/>
</g>
<path style=" stroke:none;fill-rule:nonzero;fill:rgb(100%,100%,100%);fill-opacity:1;" d="M 73.832031 39.152344 L 64.652344 42.261719 L 64.417969 41.589844 L 73.597656 38.472656 L 73.832031 39.152344 "/>
<path style=" stroke:none;fill-rule:nonzero;fill:rgb(100%,100%,100%);fill-opacity:1;" d="M 75.082031 42.796875 L 65.902344 45.910156 L 64.996094 43.277344 L 74.179688 40.164062 L 75.082031 42.796875 "/>
<path style=" stroke:none;fill-rule:nonzero;fill:rgb(100%,100%,100%);fill-opacity:1;" d="M 90.417969 91.9375 C 91.023438 93.699219 90.078125 95.609375 88.304688 96.210938 C 86.53125 96.8125 84.609375 95.871094 84.003906 94.113281 C 83.398438 92.355469 84.34375 90.441406 86.113281 89.839844 C 87.886719 89.238281 89.8125 90.179688 90.417969 91.9375 "/>
<g clip-path="url(#clip6)" clip-rule="nonzero">
<path style=" stroke:none;fill-rule:nonzero;fill:rgb(84.309387%,65.098572%,14.898682%);fill-opacity:1;" d="M 53.148438 74.652344 L 41.957031 74.652344 L 41.957031 11.203125 L 53.148438 11.203125 L 53.148438 74.652344 "/>
</g>
<path style=" stroke:none;fill-rule:nonzero;fill:rgb(100%,100%,100%);fill-opacity:1;" d="M 53.148438 13.089844 L 41.957031 13.089844 L 41.957031 12.375 L 53.148438 12.375 L 53.148438 13.089844 "/>
<path style=" stroke:none;fill-rule:nonzero;fill:rgb(100%,100%,100%);fill-opacity:1;" d="M 53.148438 16.9375 L 41.957031 16.9375 L 41.957031 14.160156 L 53.148438 14.160156 L 53.148438 16.9375 "/>
<path style=" stroke:none;fill-rule:nonzero;fill:rgb(100%,100%,100%);fill-opacity:1;" d="M 51.910156 60.691406 L 43.195312 60.691406 L 43.195312 29.007812 L 51.910156 29.007812 L 51.910156 60.691406 "/>
<g clip-path="url(#clip7)" clip-rule="nonzero">
<path style=" stroke:none;fill-rule:nonzero;fill:rgb(90.589905%,14.118958%,30.198669%);fill-opacity:1;" d="M 104.351562 97.386719 L 95.183594 100.53125 L 74.691406 41.476562 L 83.859375 38.335938 L 104.351562 97.386719 "/>
</g>
<path style=" stroke:none;fill-rule:nonzero;fill:rgb(100%,100%,100%);fill-opacity:1;" d="M 84.476562 40.113281 L 75.308594 43.253906 L 75.070312 42.578125 L 84.242188 39.4375 L 84.476562 40.113281 "/>
<path style=" stroke:none;fill-rule:nonzero;fill:rgb(100%,100%,100%);fill-opacity:1;" d="M 85.742188 43.753906 L 76.570312 46.894531 L 75.65625 44.269531 L 84.828125 41.128906 L 85.742188 43.753906 "/>
<path style=" stroke:none;fill-rule:nonzero;fill:rgb(100%,100%,100%);fill-opacity:1;" d="M 94.382812 98.230469 L 103.550781 95.089844 L 103.785156 95.765625 L 94.617188 98.90625 L 94.382812 98.230469 "/>
<path style=" stroke:none;fill-rule:nonzero;fill:rgb(100%,100%,100%);fill-opacity:1;" d="M 93.121094 94.589844 L 102.289062 91.453125 L 103.199219 94.074219 L 94.03125 97.214844 L 93.121094 94.589844 "/>
<path style=" stroke:none;fill-rule:nonzero;fill:rgb(100%,100%,100%);fill-opacity:1;" d="M 98.289062 86.0625 L 92.933594 87.097656 L 91.601562 83.265625 L 96.957031 82.222656 L 98.289062 86.0625 "/>
<path style=" stroke:none;fill-rule:nonzero;fill:rgb(100%,100%,100%);fill-opacity:1;" d="M 96.710938 81.519531 L 91.355469 82.550781 L 90.023438 78.71875 L 95.382812 77.679688 L 96.710938 81.519531 "/>
<path style=" stroke:none;fill-rule:nonzero;fill:rgb(100%,100%,100%);fill-opacity:1;" d="M 95.132812 76.972656 L 89.78125 78.015625 L 88.445312 74.183594 L 93.808594 73.140625 L 95.132812 76.972656 "/>
<g clip-path="url(#clip8)" clip-rule="nonzero">
<path style=" stroke:none;fill-rule:nonzero;fill:rgb(0%,0%,0%);fill-opacity:1;" d="M 236.199219 11.199219 L 213.800781 11.199219 L 213.800781 44.800781 L 180.199219 44.800781 L 180.199219 67.203125 L 213.800781 67.203125 L 213.800781 100.800781 L 236.199219 100.800781 L 236.199219 67.203125 L 269.800781 67.203125 L 269.800781 44.800781 L 236.199219 44.800781 L 236.199219 11.199219 "/>
</g>
<g clip-path="url(#clip9)" clip-rule="nonzero">
<path style=" stroke:none;fill-rule:nonzero;fill:rgb(0%,0%,0%);fill-opacity:1;" d="M 437.804688 73.226562 C 437.804688 75.074219 436.316406 76.550781 434.457031 76.550781 L 343.703125 76.550781 C 341.84375 76.550781 340.355469 75.074219 340.355469 73.226562 L 340.355469 14.535156 C 340.355469 12.691406 341.84375 11.214844 343.703125 11.214844 L 434.578125 11.214844 C 436.441406 11.214844 437.925781 12.691406 437.925781 14.535156 L 437.925781 73.226562 Z M 437.804688 73.226562 "/>
</g>
<path style=" stroke:none;fill-rule:nonzero;fill:rgb(19.999695%,19.60907%,19.999695%);fill-opacity:1;" d="M 343.824219 15.398438 L 434.332031 15.398438 L 434.332031 69.167969 L 343.824219 69.167969 Z M 343.824219 15.398438 "/>
<path style=" stroke:none;fill-rule:nonzero;fill:rgb(91.758728%,90.979004%,92.549133%);fill-opacity:1;" d="M 437.804688 78.886719 L 437.804688 73.226562 L 340.355469 73.226562 L 340.355469 78.886719 C 340.355469 78.886719 339.609375 84.917969 345.066406 84.917969 L 432.96875 84.917969 C 438.546875 85.039062 437.804688 78.886719 437.804688 78.886719 Z M 437.804688 78.886719 "/>
<g clip-path="url(#clip10)" clip-rule="nonzero">
<path style=" stroke:none;fill-rule:nonzero;fill:rgb(85.879517%,85.879517%,85.879517%);fill-opacity:1;" d="M 408.417969 97.957031 C 405.320312 95.988281 400.734375 84.917969 400.734375 84.917969 L 377.425781 84.917969 C 377.425781 84.917969 372.835938 95.988281 369.738281 97.957031 C 369.738281 97.957031 367.257812 100.664062 370.234375 100.664062 L 407.925781 100.664062 C 410.898438 100.789062 408.417969 97.957031 408.417969 97.957031 Z M 408.417969 97.957031 "/>
</g>
<path style=" stroke:none;fill-rule:nonzero;fill:rgb(0%,0%,0%);fill-opacity:1;" d="M 392.054688 79.132812 C 392.054688 79.625 391.683594 80.117188 391.0625 80.117188 L 386.847656 80.117188 C 386.351562 80.117188 385.855469 79.75 385.855469 79.132812 C 385.855469 78.640625 386.226562 78.148438 386.847656 78.148438 L 391.0625 78.148438 C 391.683594 78.273438 392.054688 78.640625 392.054688 79.132812 Z M 392.054688 79.132812 "/>
</g>
</svg>
