<?xml version="1.0" encoding="UTF-8"?>
<svg xmlns="http://www.w3.org/2000/svg" xmlns:xlink="http://www.w3.org/1999/xlink" width="375pt" height="374.999991pt" viewBox="0 0 375 374.999991" version="1.2">
<defs>
<clipPath id="clip1">
  <path d="M 182 239 L 234 239 L 234 324.9375 L 182 324.9375 Z M 182 239 "/>
</clipPath>
<clipPath id="clip2">
  <path d="M 21.867188 50.4375 L 353.367188 50.4375 L 353.367188 257 L 21.867188 257 Z M 21.867188 50.4375 "/>
</clipPath>
</defs>
<g id="surface1">
<g clip-path="url(#clip1)" clip-rule="nonzero">
<path style=" stroke:none;fill-rule:nonzero;fill:rgb(80.389404%,23.529053%,38.038635%);fill-opacity:1;" d="M 233.484375 239.414062 L 233.484375 311.847656 C 233.484375 319.296875 227.476562 325.3125 220.058594 325.3125 C 214.382812 325.3125 209.359375 321.757812 207.414062 316.386719 L 182.015625 245.207031 L 233.484375 239.414062 "/>
</g>
<path style=" stroke:none;fill-rule:nonzero;fill:rgb(64.709473%,16.859436%,30.979919%);fill-opacity:1;" d="M 216.328125 239.414062 L 216.328125 256.59375 C 216.328125 275.5625 236.8125 290.953125 262.082031 290.953125 C 287.347656 290.953125 307.832031 275.5625 307.832031 256.59375 L 307.832031 239.414062 L 216.328125 239.414062 "/>
<g clip-path="url(#clip2)" clip-rule="nonzero">
<path style=" stroke:none;fill-rule:nonzero;fill:rgb(94.509888%,29.40979%,45.489502%);fill-opacity:1;" d="M 353.585938 210.78125 C 353.585938 220.289062 349.765625 228.878906 343.507812 235.050781 C 337.34375 241.316406 328.765625 245.140625 319.269531 245.140625 L 184.472656 245.140625 C 175.199219 245.140625 165.882812 246.90625 157.640625 251.269531 C 151.296875 254.648438 143.96875 256.59375 136.261719 256.59375 C 112.917969 256.59375 93.703125 239.125 90.84375 216.507812 L 56.195312 216.507812 C 46.699219 216.507812 38.121094 212.683594 31.957031 206.417969 C 25.703125 200.246094 21.882812 191.65625 21.882812 182.148438 C 21.882812 109.425781 80.792969 50.4375 153.417969 50.4375 L 193.453125 50.4375 C 281.875 50.4375 353.585938 122.242188 353.585938 210.78125 "/>
</g>
<path style=" stroke:none;fill-rule:nonzero;fill:rgb(80.389404%,23.529053%,38.038635%);fill-opacity:1;" d="M 284.957031 245.140625 L 284.957031 250.867188 C 284.957031 256.929688 276.265625 268.046875 262.082031 268.046875 C 247.894531 268.046875 239.203125 256.929688 239.203125 250.867188 L 239.203125 245.140625 L 284.957031 245.140625 "/>
<path style=" stroke:none;fill-rule:nonzero;fill:rgb(80.389404%,23.529053%,38.038635%);fill-opacity:1;" d="M 237.304688 168.347656 C 234.980469 170.40625 231.363281 170.179688 229.261719 167.832031 C 221.578125 159.175781 210.675781 154.253906 199.238281 154.253906 C 188.46875 154.253906 178.417969 158.4375 170.867188 166.066406 C 163.492188 173.492188 152.457031 176.355469 142.785156 173.269531 C 137.222656 171.5 131.457031 170.988281 125.515625 171.722656 C 107.441406 173.894531 92.855469 188.679688 90.800781 206.820312 C 90.441406 210.222656 90.441406 213.464844 90.84375 216.507812 L 79.40625 216.507812 C 79.003906 213.019531 79.003906 209.351562 79.40625 205.570312 C 82.109375 182.214844 100.851562 163.203125 124.132812 160.339844 C 131.683594 159.421875 139.121094 160.09375 146.203125 162.394531 C 151.878906 164.164062 158.332031 162.441406 162.734375 157.988281 C 172.476562 148.191406 185.386719 142.800781 199.238281 142.800781 C 213.9375 142.800781 227.988281 149.152344 237.839844 160.203125 C 239.898438 162.621094 239.671875 166.222656 237.304688 168.347656 "/>
<path style=" stroke:none;fill-rule:nonzero;fill:rgb(80.389404%,23.529053%,38.038635%);fill-opacity:1;" d="M 241.503906 207.472656 C 239.269531 207.472656 237.125 206.152344 236.210938 203.957031 C 235.003906 201.027344 236.367188 197.695312 239.292969 196.464844 L 291.902344 174.453125 C 294.808594 173.246094 298.160156 174.609375 299.386719 177.519531 C 300.59375 180.449219 299.230469 183.78125 296.304688 185.011719 L 243.695312 207.023438 C 242.980469 207.335938 242.242188 207.472656 241.503906 207.472656 "/>
<path style=" stroke:none;fill-rule:nonzero;fill:rgb(80.389404%,23.529053%,38.038635%);fill-opacity:1;" d="M 227.765625 113.429688 L 187.734375 113.429688 C 184.582031 113.429688 182.015625 110.855469 182.015625 107.703125 C 182.015625 104.550781 184.582031 101.976562 187.734375 101.976562 L 227.765625 101.976562 C 230.914062 101.976562 233.484375 104.550781 233.484375 107.703125 C 233.484375 110.855469 230.914062 113.429688 227.765625 113.429688 "/>
<path style=" stroke:none;fill-rule:nonzero;fill:rgb(80.389404%,23.529053%,38.038635%);fill-opacity:1;" d="M 72.324219 158.90625 C 71.097656 158.90625 69.84375 158.503906 68.816406 157.675781 C 66.316406 155.753906 65.867188 152.152344 67.8125 149.644531 L 98.460938 110.253906 C 100.40625 107.746094 104.003906 107.300781 106.484375 109.269531 C 108.984375 111.191406 109.429688 114.792969 107.488281 117.300781 L 76.835938 156.691406 C 75.699219 158.144531 74.023438 158.90625 72.324219 158.90625 "/>
<path style=" stroke:none;fill-rule:nonzero;fill:rgb(80.389404%,23.529053%,38.038635%);fill-opacity:1;" d="M 164.855469 113.429688 L 119.105469 113.429688 C 115.953125 113.429688 113.386719 110.855469 113.386719 107.703125 C 113.386719 104.550781 115.953125 101.976562 119.105469 101.976562 L 164.855469 101.976562 C 168.007812 101.976562 170.574219 104.550781 170.574219 107.703125 C 170.574219 110.855469 168.007812 113.429688 164.855469 113.429688 "/>
<path style=" stroke:none;fill-rule:nonzero;fill:rgb(80.389404%,23.529053%,38.038635%);fill-opacity:1;" d="M 297.644531 177.226562 C 296.125 177.226562 294.5625 176.601562 293.445312 175.371094 L 239.449219 116.496094 C 237.304688 114.167969 237.460938 110.542969 239.785156 108.398438 C 242.128906 106.273438 245.726562 106.40625 247.871094 108.753906 L 301.867188 167.632812 C 304.011719 169.957031 303.855469 173.582031 301.53125 175.730469 C 300.4375 176.734375 299.050781 177.226562 297.644531 177.226562 "/>
<path style=" stroke:none;fill-rule:nonzero;fill:rgb(80.389404%,23.529053%,38.038635%);fill-opacity:1;" d="M 165.191406 215.679688 C 162.21875 215.679688 159.71875 213.398438 159.496094 210.378906 C 159.273438 207.226562 161.640625 204.472656 164.789062 204.25 L 221.289062 200.15625 C 224.460938 199.910156 227.183594 202.304688 227.410156 205.457031 C 227.632812 208.613281 225.265625 211.363281 222.113281 211.585938 L 165.617188 215.679688 C 165.480469 215.679688 165.347656 215.679688 165.191406 215.679688 "/>
<path style=" stroke:none;fill-rule:nonzero;fill:rgb(92.549133%,93.728638%,94.509888%);fill-opacity:1;" d="M 84.789062 159.242188 C 84.789062 168.726562 77.105469 176.421875 67.632812 176.421875 C 58.160156 176.421875 50.476562 168.726562 50.476562 159.242188 C 50.476562 149.757812 58.160156 142.0625 67.632812 142.0625 C 77.105469 142.0625 84.789062 149.757812 84.789062 159.242188 "/>
<path style=" stroke:none;fill-rule:nonzero;fill:rgb(92.549133%,93.728638%,94.509888%);fill-opacity:1;" d="M 124.824219 107.703125 C 124.824219 117.1875 117.136719 124.882812 107.667969 124.882812 C 98.195312 124.882812 90.507812 117.1875 90.507812 107.703125 C 90.507812 98.21875 98.195312 90.523438 107.667969 90.523438 C 117.136719 90.523438 124.824219 98.21875 124.824219 107.703125 "/>
<path style=" stroke:none;fill-rule:nonzero;fill:rgb(92.549133%,93.728638%,94.509888%);fill-opacity:1;" d="M 193.453125 107.703125 C 193.453125 117.1875 185.765625 124.882812 176.292969 124.882812 C 166.824219 124.882812 159.136719 117.1875 159.136719 107.703125 C 159.136719 98.21875 166.824219 90.523438 176.292969 90.523438 C 185.765625 90.523438 193.453125 98.21875 193.453125 107.703125 "/>
<path style=" stroke:none;fill-rule:nonzero;fill:rgb(92.549133%,93.728638%,94.509888%);fill-opacity:1;" d="M 256.359375 107.703125 C 256.359375 117.1875 248.675781 124.882812 239.203125 124.882812 C 229.730469 124.882812 222.046875 117.1875 222.046875 107.703125 C 222.046875 98.21875 229.730469 90.523438 239.203125 90.523438 C 248.675781 90.523438 256.359375 98.21875 256.359375 107.703125 "/>
<path style=" stroke:none;fill-rule:nonzero;fill:rgb(92.549133%,93.728638%,94.509888%);fill-opacity:1;" d="M 319.269531 176.421875 C 319.269531 185.90625 311.585938 193.601562 302.113281 193.601562 C 292.640625 193.601562 284.957031 185.90625 284.957031 176.421875 C 284.957031 166.9375 292.640625 159.242188 302.113281 159.242188 C 311.585938 159.242188 319.269531 166.9375 319.269531 176.421875 "/>
<path style=" stroke:none;fill-rule:nonzero;fill:rgb(92.549133%,93.728638%,94.509888%);fill-opacity:1;" d="M 250.640625 205.054688 C 250.640625 214.539062 242.957031 222.234375 233.484375 222.234375 C 224.011719 222.234375 216.328125 214.539062 216.328125 205.054688 C 216.328125 195.570312 224.011719 187.875 233.484375 187.875 C 242.957031 187.875 250.640625 195.570312 250.640625 205.054688 "/>
<path style=" stroke:none;fill-rule:nonzero;fill:rgb(92.549133%,93.728638%,94.509888%);fill-opacity:1;" d="M 170.574219 210.78125 C 170.574219 220.265625 162.890625 227.960938 153.417969 227.960938 C 143.945312 227.960938 136.261719 220.265625 136.261719 210.78125 C 136.261719 201.296875 143.945312 193.601562 153.417969 193.601562 C 162.890625 193.601562 170.574219 201.296875 170.574219 210.78125 "/>
</g>
</svg>
